<?xml version="1.0" ?><!DOCTYPE svg  PUBLIC '-//W3C//DTD SVG 1.1//EN'  'http://www.w3.org/Graphics/SVG/1.1/DTD/svg11.dtd'><svg height="100%" style="fill-rule:evenodd;clip-rule:evenodd;stroke-linejoin:round;stroke-miterlimit:1.41421;" version="1.1" viewBox="0 0 101 126" width="100%" xml:space="preserve" xmlns="http://www.w3.org/2000/svg" xmlns:serif="http://www.serif.com/" xmlns:xlink="http://www.w3.org/1999/xlink"><clipPath id="_clip1"><rect height="125" width="100" x="0.868" y="0.54"/></clipPath><g clip-path="url(#_clip1)"><path d="M100.868,42.577c0,-16.313 -13.225,-29.537 -29.538,-29.537c-12.908,0 -28.016,0 -40.925,0c-16.313,0 -29.537,13.224 -29.537,29.537c0,12.909 0,28.017 0,40.926c0,16.313 13.224,29.537 29.537,29.537c12.909,0 28.017,0 40.925,0c16.313,0 29.538,-13.224 29.538,-29.537c0,-12.909 0,-28.017 0,-40.926Z" style="fill:$activeLink;"/><path d="M42.268,90.34l25.6,-27.3l-25.6,-27.3l-5.8,5.5l20.4,21.8l-20.4,21.8l5.8,5.5Z" style="fill:#fff;fill-rule:nonzero;"/></g></svg>