<?xml version="1.0" ?><!DOCTYPE svg  PUBLIC '-//W3C//DTD SVG 1.1//EN'  'http://www.w3.org/Graphics/SVG/1.1/DTD/svg11.dtd'><svg enable-background="new 0 0 0 0" height="122px" version="1.1" viewBox="0 0 512 512" width="122px" xml:space="preserve" xmlns="http://www.w3.org/2000/svg" xmlns:xlink="http://www.w3.org/1999/xlink"><g><g id="apple_logo"><g><path clip-rule="evenodd" d="M390.056,199.288c-25.229,17.69-39.653,41.094-37.537,72.883      c2.111,31.742,19.156,53.183,46.855,67.062c-1.135,3.213-2.251,6.596-3.513,9.944c-6.184,16.35-14.446,31.56-24.503,45.808      c-4.636,6.549-9.241,13.098-14.62,19.065c-5.325,5.926-11.177,11.176-18.329,14.801c-6.305,3.205-12.966,4.567-20.001,4.317      c-7.681-0.28-14.84-2.506-21.818-5.584c-5.12-2.26-10.218-4.562-15.613-6.104c-8.584-2.438-17.304-2.928-26.14-1.924      c-7.552,0.874-14.647,3.272-21.589,6.263c-5.34,2.307-10.638,4.703-16.304,6.139c-5.064,1.277-10.188,1.994-15.421,1.511      c-5.938-0.54-11.326-2.731-16.344-5.885c-6.836-4.29-12.555-9.881-17.737-16.02c-22.821-27.09-38.921-57.723-47.628-92.264      c-2.426-9.643-4.276-19.372-5.348-29.271c-1.223-11.256-1.466-22.532-0.388-33.809c1.457-15.258,5.15-29.881,12.319-43.488      c10.164-19.26,25.057-33.347,45.088-41.674c9.861-4.088,20.167-6.064,30.825-5.975c7.213,0.051,14.196,1.585,20.974,3.999      c6.696,2.403,13.283,5.104,19.957,7.544c3.323,1.23,6.712,2.29,10.121,3.229c4.923,1.347,9.772,0.563,14.461-1.155      c6.184-2.24,12.322-4.658,18.478-7.008c6.16-2.371,12.381-4.473,18.819-5.934c7.215-1.666,14.484-2.067,21.872-1.523      c11.334,0.848,22.184,3.505,32.438,8.479c12.312,5.985,22.396,14.637,30.218,25.977      C389.81,198.919,389.962,199.147,390.056,199.288z" fill-rule="evenodd" fill="#fff"/><path clip-rule="evenodd" d="M254.742,195.88      c0.777-5.993,1.044-9.995,0.072-15.792c-0.739-0.111-1.478-0.251-2.22-0.455c-3.408-0.94-6.798-2-10.121-3.229      c-6.673-2.44-13.26-5.141-19.957-7.544c-6.778-2.413-13.76-3.947-20.974-3.998c-10.658-0.09-20.963,1.887-30.825,5.975      c-20.031,8.327-34.924,22.414-45.088,41.674c-7.169,13.607-10.863,28.229-12.319,43.487c-1.079,11.278,1.573,22.549,0.388,33.81      c-1.073,10.189,16.275,57.917,18.363,66.638c1.88,0.072,2.279,1.216,3.787,0.059C184.138,319.465,246.312,260.94,254.742,195.88      z" fill="#fff" fill-rule="evenodd"/><path clip-rule="evenodd" d="M311.129,80.688      c-22.901,7.512-39.768,22.016-49.875,44.252c-4.869,10.731-7.413,21.917-6.221,33.797c13.592-4.403,29.955-15.687,43.19-30.993      c14.46-16.723,22.022-34.523,23.438-49.326C318.083,78.843,314.567,79.576,311.129,80.688z" fill="white" fill-rule="evenodd"/><linearGradient gradientUnits="userSpaceOnUse" id="SVGID_1_" x1="315.8027" x2="315.8027" y1="240.418" y2="166.957"><stop offset="0.0427" style="stop-color:#231F20;"/><stop offset="0.9304" style="stop-color:#FFFFFF;"/></linearGradient></g></g></g></svg>